<svg width="64" height="64" viewBox="0 0 64 64" fill="none" xmlns="http://www.w3.org/2000/svg">
  <rect width="64" height="64" rx="8" fill="#1DB954"/>
  <path d="M32 16C24.268 16 18 22.268 18 30C18 37.732 24.268 44 32 44C39.732 44 46 37.732 46 30C46 22.268 39.732 16 32 16ZM32 40C26.477 40 22 35.523 22 30C22 24.477 26.477 20 32 20C37.523 20 42 24.477 42 30C42 35.523 37.523 40 32 40Z" fill="white"/>
  <path d="M32 24C28.686 24 26 26.686 26 30C26 33.314 28.686 36 32 36C35.314 36 38 33.314 38 30C38 26.686 35.314 24 32 24ZM32 32C29.791 32 28 30.209 28 28C28 25.791 29.791 24 32 24C34.209 24 36 25.791 36 28C36 30.209 34.209 32 32 32Z" fill="white"/>
  <rect x="16" y="48" width="32" height="4" rx="2" fill="white" opacity="0.7"/>
  <rect x="16" y="54" width="24" height="3" rx="1.5" fill="white" opacity="0.5"/>
</svg>